<?xml version="1.0" standalone="no"?><!DOCTYPE svg PUBLIC "-//W3C//DTD SVG 1.1//EN" "http://www.w3.org/Graphics/SVG/1.1/DTD/svg11.dtd"><svg t="1671606206381" class="icon" viewBox="0 0 1024 1024" version="1.1" xmlns="http://www.w3.org/2000/svg" p-id="6365" xmlns:xlink="http://www.w3.org/1999/xlink" width="200" height="200"><path d="M472.832 133.461333c14.805333-34.346667 63.530667-34.346667 78.336 0l93.013333 215.552a42.666667 42.666667 0 0 0 35.882667 25.6l238.506667 18.432c38.314667 2.986667 53.504 51.029333 23.893333 75.477334l-179.370667 148.053333a42.666667 42.666667 0 0 0-14.250666 43.178667l55.210666 223.104c9.088 36.693333-30.506667 66.133333-63.061333 47.018666l-207.36-122.069333a42.666667 42.666667 0 0 0-43.264 0l-207.36 122.026667c-32.554667 19.2-72.106667-10.325333-63.061333-46.976l55.210666-223.104a42.666667 42.666667 0 0 0-14.250666-43.136L81.493333 468.48c-29.568-24.448-14.378667-72.533333 23.893334-75.477333l238.506666-18.432a42.666667 42.666667 0 0 0 35.925334-25.6l93.013333-215.552z" fill="#06fddb" p-id="6366"></path><path d="M492.16 354.816a21.333333 21.333333 0 0 1 39.68 0l34.645333 87.552a21.333333 21.333333 0 0 0 18.048 13.397333l91.733334 7.722667a21.333333 21.333333 0 0 1 12.458666 37.12l-71.424 64.341333a21.333333 21.333333 0 0 0-6.528 20.565334l21.546667 94.976a21.333333 21.333333 0 0 1-32.341333 22.656l-76.458667-49.066667a21.333333 21.333333 0 0 0-23.04 0l-76.458667 49.066667a21.333333 21.333333 0 0 1-32.341333-22.613334l21.546667-95.018666a21.333333 21.333333 0 0 0-6.528-20.565334l-71.424-64.341333a21.333333 21.333333 0 0 1 12.501333-37.12l91.733333-7.68a21.333333 21.333333 0 0 0 18.005334-13.44l34.645333-87.552z" fill="#12131A" p-id="6367"></path></svg>