<?xml version="1.0" standalone="no"?><!DOCTYPE svg PUBLIC "-//W3C//DTD SVG 1.1//EN" "http://www.w3.org/Graphics/SVG/1.1/DTD/svg11.dtd"><svg t="1671710535517" class="icon" viewBox="0 0 1024 1024" version="1.1" xmlns="http://www.w3.org/2000/svg" p-id="1892" xmlns:xlink="http://www.w3.org/1999/xlink" width="200" height="200"><path d="M816.6912 903.2704H192.512c-47.104 0-85.2992-38.1952-85.2992-85.2992V486.0928c0-47.104 38.1952-85.2992 85.2992-85.2992h624.1792c47.104 0 85.2992 38.1952 85.2992 85.2992v331.8784c0 47.104-38.1952 85.2992-85.2992 85.2992z" fill="#F1D000" p-id="1893"></path><path d="M830.976 400.7936h-82.5856c39.2192 0 71.0144 38.1952 71.0144 85.2992v331.8784c0 47.104-31.7952 85.2992-71.0144 85.2992h82.5856c39.2192 0 71.0144-38.1952 71.0144-85.2992V486.0928c0-47.104-31.7952-85.2992-71.0144-85.2992z" fill="#F2B200" p-id="1894"></path><path d="M742.9632 722.7392h159.0784v-146.176h-159.0784c-40.3456 0-73.0624 32.7168-73.0624 73.0624-0.0512 40.3968 32.6656 73.1136 73.0624 73.1136z" fill="#FF6464" p-id="1895"></path><path d="M819.456 576.5632h82.5856v146.176h-82.5856z" fill="#FF4436" p-id="1896"></path><path d="M735.1808 139.0592h-465.92c-43.5712 0-78.9504 35.328-78.9504 78.8992v182.8352h623.8208V217.9584c0-43.5712-35.328-78.8992-78.9504-78.8992z" fill="#FEFCE2" p-id="1897"></path><path d="M735.1808 139.0592h-74.0352c43.5712 0 78.8992 35.328 78.8992 78.8992v182.8352H814.08V217.9584c0.0512-43.5712-35.2768-78.8992-78.8992-78.8992z" fill="#FDF5B5" p-id="1898"></path><path d="M829.4912 386.304V217.9584c0-51.968-42.2912-94.3104-94.3104-94.3104h-465.92c-51.968 0-94.3104 42.2912-94.3104 94.3104V387.072c-47.1552 8.3456-83.0976 49.5104-83.0976 99.0208v331.8784c0 55.5008 45.1584 100.6592 100.6592 100.6592h624.1792c55.5008 0 100.6592-45.1584 100.6592-100.6592V486.0928c0-51.2-38.4-93.44-87.8592-99.7888zM205.6704 217.9584c0-35.072 28.5184-63.5904 63.5904-63.5904h465.9712c35.072 0 63.5904 28.5184 63.5904 63.5904v167.4752H517.632v-33.5872h69.1712c8.4992 0 15.36-6.8608 15.36-15.36s-6.8608-15.36-15.36-15.36h-59.6992l56.8832-79.5136c4.9152-6.912 3.328-16.4864-3.5328-21.4528a15.39072 15.39072 0 0 0-21.4528 3.5328L502.3232 302.9504 446.464 223.7952a15.34976 15.34976 0 0 0-21.4016-3.6864c-6.912 4.9152-8.6016 14.4896-3.6864 21.4016l56.1664 79.616H417.9968c-8.4992 0-15.36 6.8608-15.36 15.36s6.8608 15.36 15.36 15.36h68.864v33.5872H205.6704V217.9584z m611.0208 669.952H192.512c-38.5536 0-69.9392-31.3856-69.9392-69.9392V486.0928c0-38.5536 31.3856-69.9392 69.9392-69.9392h624.1792c38.5536 0 69.9392 31.3856 69.9392 69.9392v75.1104H742.912c-48.7424 0-88.4224 39.68-88.4224 88.4224s39.68 88.4224 88.4224 88.4224h143.7184v79.872c0 38.6048-31.3344 69.9904-69.9392 69.9904z m69.9392-180.5312H742.912c-31.8464 0-57.7024-25.9072-57.7024-57.7024s25.9072-57.7024 57.7024-57.7024h143.7184v115.4048z" fill="#333333" p-id="1899"></path><path d="M748.3904 649.6256m-26.2144 0a26.2144 26.2144 0 1 0 52.4288 0 26.2144 26.2144 0 1 0-52.4288 0Z" fill="#FFFFFF" p-id="1900"></path><path d="M190.3104 606.464c-8.4992 0-15.36-6.8608-15.36-15.36v-72.7552c0-26.0096 21.1456-47.1552 47.1552-47.1552h86.8864c8.4992 0 15.36 6.8608 15.36 15.36s-6.8608 15.36-15.36 15.36H222.1568c-9.0624 0-16.4352 7.3728-16.4352 16.4352v72.7552c-0.0512 8.448-6.912 15.36-15.4112 15.36zM389.888 501.8624h-20.1216c-8.4992 0-15.36-6.8608-15.36-15.36s6.8608-15.36 15.36-15.36h20.1216c8.4992 0 15.36 6.8608 15.36 15.36s-6.8608 15.36-15.36 15.36z" fill="#FFFFFF" p-id="1901"></path></svg>