<?xml version="1.0" standalone="no"?><!DOCTYPE svg PUBLIC "-//W3C//DTD SVG 1.1//EN" "http://www.w3.org/Graphics/SVG/1.1/DTD/svg11.dtd"><svg t="1671710530915" class="icon" viewBox="0 0 1024 1024" version="1.1" xmlns="http://www.w3.org/2000/svg" p-id="1587" xmlns:xlink="http://www.w3.org/1999/xlink" width="200" height="200"><path d="M733.2864 921.7024H299.264c-60.2624 0-109.1584-48.8448-109.1584-109.1584V221.696c0-60.2624 48.8448-109.1584 109.1584-109.1584h434.0224c60.2624 0 109.1584 48.8448 109.1584 109.1584v590.848c-0.0512 60.3136-48.896 109.1584-109.1584 109.1584z" fill="#7BD3FF" p-id="1588"></path><path d="M733.2864 112.5376h-92.8256c60.2624 0 109.1584 48.8448 109.1584 109.1584v590.848c0 60.2624-48.8448 109.1584-109.1584 109.1584h92.8256c60.2624 0 109.1584-48.8448 109.1584-109.1584V221.696c-0.0512-60.3136-48.896-109.1584-109.1584-109.1584z" fill="#5BC7FC" p-id="1589"></path><path d="M731.3408 707.9936H301.1584a26.4192 26.4192 0 0 1-26.4192-26.4192V251.392a26.4192 26.4192 0 0 1 26.4192-26.4192h430.1824A26.4192 26.4192 0 0 1 757.76 251.392v430.1824a26.4192 26.4192 0 0 1-26.4192 26.4192z" fill="#FEFCE2" p-id="1590"></path><path d="M731.3408 224.9728h-84.6336a26.4192 26.4192 0 0 1 26.4192 26.4192v430.1824a26.4192 26.4192 0 0 1-26.4192 26.4192h84.6336a26.4192 26.4192 0 0 0 26.4192-26.4192V251.392a26.4192 26.4192 0 0 0-26.4192-26.4192z" fill="#FDF5B5" p-id="1591"></path><path d="M516.2496 817.152m-56.6272 0a56.6272 56.6272 0 1 0 113.2544 0 56.6272 56.6272 0 1 0-113.2544 0Z" fill="#F5D126" p-id="1592"></path><path d="M502.6816 803.5328m-13.6192 0a13.6192 13.6192 0 1 0 27.2384 0 13.6192 13.6192 0 1 0-27.2384 0Z" fill="#FFFFFF" p-id="1593"></path><path d="M516.2496 889.088c-39.68 0-71.9872-32.3072-71.9872-71.9872s32.3072-71.9872 71.9872-71.9872 71.9872 32.3072 71.9872 71.9872-32.3072 71.9872-71.9872 71.9872z m0-113.2032c-22.7328 0-41.2672 18.5344-41.2672 41.2672s18.5344 41.2672 41.2672 41.2672 41.2672-18.5344 41.2672-41.2672-18.4832-41.2672-41.2672-41.2672z" fill="#333333" p-id="1594"></path><path d="M733.2864 97.1776H299.264c-68.6592 0-124.5184 55.8592-124.5184 124.5184v590.848c0 68.6592 55.8592 124.5184 124.5184 124.5184h434.0224c68.6592 0 124.5184-55.8592 124.5184-124.5184V221.696c-0.0512-68.6592-55.8592-124.5184-124.5184-124.5184z m93.7472 715.3664c0 51.712-42.0864 93.7984-93.7984 93.7984H299.264c-51.712 0-93.7984-42.0864-93.7984-93.7984V221.696c0-51.712 42.0864-93.7984 93.7984-93.7984h434.0224c51.712 0 93.7984 42.0864 93.7984 93.7984v590.848z" fill="#333333" p-id="1595"></path><path d="M731.3408 209.6128H301.1584c-23.04 0-41.7792 18.7392-41.7792 41.7792v430.1824c0 23.04 18.7392 41.7792 41.7792 41.7792h430.1824c23.04 0 41.7792-18.7392 41.7792-41.7792V251.392c0-23.04-18.7392-41.7792-41.7792-41.7792z m11.0592 471.9104c0 6.0928-4.9664 11.0592-11.0592 11.0592H301.1584c-6.0928 0-11.0592-4.9664-11.0592-11.0592V251.392c0-6.0928 4.9664-11.0592 11.0592-11.0592h430.1824c6.0928 0 11.0592 4.9664 11.0592 11.0592v430.1312z" fill="#333333" p-id="1596"></path><path d="M618.8544 449.4336c8.4992 0 15.36-6.8608 15.36-15.36s-6.8608-15.36-15.36-15.36h-72.9088l51.8656-72.4992c4.9152-6.912 3.328-16.4864-3.5328-21.4528a15.39072 15.39072 0 0 0-21.4528 3.5328L516.1984 407.552 460.3392 328.3968a15.34976 15.34976 0 0 0-21.4016-3.6864c-6.912 4.9152-8.6016 14.4896-3.6864 21.4016l51.2 72.6016H413.6448c-8.4992 0-15.36 6.8608-15.36 15.36s6.8608 15.36 15.36 15.36H500.736v57.088H413.6448c-8.4992 0-15.36 6.8608-15.36 15.36s6.8608 15.36 15.36 15.36H500.736v58.4704c0 8.4992 6.8608 15.36 15.36 15.36s15.36-6.8608 15.36-15.36v-58.4704h87.3984c8.4992 0 15.36-6.8608 15.36-15.36s-6.8608-15.36-15.36-15.36H531.456V449.4336h87.3984z" fill="#333333" p-id="1597"></path><path d="M580.7104 186.7264H452.4544c-8.4992 0-15.36-6.8608-15.36-15.36s6.8608-15.36 15.36-15.36h128.3072c8.4992 0 15.36 6.8608 15.36 15.36s-6.912 15.36-15.4112 15.36z" fill="#FFFFFF" p-id="1598"></path></svg>