<?xml version="1.0" standalone="no"?><!DOCTYPE svg PUBLIC "-//W3C//DTD SVG 1.1//EN" "http://www.w3.org/Graphics/SVG/1.1/DTD/svg11.dtd"><svg t="1671710582008" class="icon" viewBox="0 0 1024 1024" version="1.1" xmlns="http://www.w3.org/2000/svg" p-id="4956" xmlns:xlink="http://www.w3.org/1999/xlink" width="200" height="200"><path d="M688.6912 915.0976H254.6688c-60.2624 0-109.1584-48.8448-109.1584-109.1584V215.04c0-60.2624 48.8448-109.1584 109.1584-109.1584h434.0224c60.2624 0 109.1584 48.8448 109.1584 109.1584v590.848c0 60.3136-48.896 109.2096-109.1584 109.2096z" fill="#FFBE4A" p-id="4957"></path><path d="M688.6912 105.8816h-92.8256c60.2624 0 109.1584 48.8448 109.1584 109.1584v590.848c0 60.2624-48.8448 109.1584-109.1584 109.1584h92.8256c60.2624 0 109.1584-48.8448 109.1584-109.1584V215.04c0-60.2624-48.896-109.1584-109.1584-109.1584z" fill="#F2B200" p-id="4958"></path><path d="M688.6912 930.4576H254.6688c-68.6592 0-124.5184-55.8592-124.5184-124.5184V215.04c0-68.6592 55.8592-124.5184 124.5184-124.5184h434.0224c68.6592 0 124.5184 55.8592 124.5184 124.5184v590.848c0 68.7104-55.8592 124.5696-124.5184 124.5696zM254.6688 121.2416c-51.712 0-93.7984 42.0864-93.7984 93.7984v590.848c0 51.712 42.0864 93.7984 93.7984 93.7984h434.0224c51.712 0 93.7984-42.0864 93.7984-93.7984V215.04c0-51.712-42.0864-93.7984-93.7984-93.7984H254.6688z" fill="#333333" p-id="4959"></path><path d="M686.7456 701.3376H256.6144a26.4192 26.4192 0 0 1-26.4192-26.4192V244.736a26.4192 26.4192 0 0 1 26.4192-26.4192h430.1824a26.4192 26.4192 0 0 1 26.4192 26.4192v430.1824c0 14.592-11.8272 26.4192-26.4704 26.4192z" fill="#FEFCE2" p-id="4960"></path><path d="M686.7456 218.3168H602.112a26.4192 26.4192 0 0 1 26.4192 26.4192v430.1824a26.4192 26.4192 0 0 1-26.4192 26.4192h84.6336a26.4192 26.4192 0 0 0 26.4192-26.4192V244.736c0.0512-14.592-11.776-26.4192-26.4192-26.4192z" fill="#FDF5B5" p-id="4961"></path><path d="M686.7456 716.6976H256.6144c-23.04 0-41.7792-18.7392-41.7792-41.7792V244.736c0-23.04 18.7392-41.7792 41.7792-41.7792h430.1824c23.04 0 41.7792 18.7392 41.7792 41.7792v430.1824c0 23.04-18.7392 41.7792-41.8304 41.7792zM256.6144 233.6768c-6.0928 0-11.0592 4.9664-11.0592 11.0592v430.1824c0 6.0928 4.9664 11.0592 11.0592 11.0592h430.1824c6.0928 0 11.0592-4.9664 11.0592-11.0592V244.736c0-6.0928-4.9664-11.0592-11.0592-11.0592H256.6144z" fill="#333333" p-id="4962"></path><path d="M471.7056 810.496m-56.6272 0a56.6272 56.6272 0 1 0 113.2544 0 56.6272 56.6272 0 1 0-113.2544 0Z" fill="#F5D126" p-id="4963"></path><path d="M458.0864 796.8768m-13.6192 0a13.6192 13.6192 0 1 0 27.2384 0 13.6192 13.6192 0 1 0-27.2384 0Z" fill="#FFFFFF" p-id="4964"></path><path d="M471.7056 882.4832c-39.68 0-71.9872-32.3072-71.9872-71.9872s32.3072-71.9872 71.9872-71.9872 71.9872 32.3072 71.9872 71.9872-32.3072 71.9872-71.9872 71.9872z m0-113.2544c-22.7328 0-41.2672 18.5344-41.2672 41.2672s18.5344 41.2672 41.2672 41.2672 41.2672-18.5344 41.2672-41.2672-18.5344-41.2672-41.2672-41.2672zM574.3104 499.8656H486.912V442.7776h87.3984c8.4992 0 15.36-6.8608 15.36-15.36s-6.8608-15.36-15.36-15.36H501.4016l51.8656-72.4992c4.9152-6.912 3.328-16.4864-3.5328-21.4528a15.39072 15.39072 0 0 0-21.4528 3.5328L471.6032 400.896l-55.808-79.1552a15.34976 15.34976 0 0 0-21.4016-3.6864c-6.912 4.9152-8.6016 14.4896-3.6864 21.4016l51.2 72.6016H369.1008c-8.4992 0-15.36 6.8608-15.36 15.36s6.8608 15.36 15.36 15.36H456.192v57.088H369.1008c-8.4992 0-15.36 6.8608-15.36 15.36s6.8608 15.36 15.36 15.36H456.192v58.4704c0 8.4992 6.8608 15.36 15.36 15.36s15.36-6.8608 15.36-15.36v-58.4704h87.3984c8.4992 0 15.36-6.8608 15.36-15.36s-6.912-15.36-15.36-15.36z" fill="#333333" p-id="4965"></path><path d="M536.1664 180.0704H407.8592c-8.4992 0-15.36-6.8608-15.36-15.36s6.8608-15.36 15.36-15.36h128.3072c8.4992 0 15.36 6.8608 15.36 15.36s-6.912 15.36-15.36 15.36z" fill="#FFFFFF" p-id="4966"></path><path d="M736 738.3552m-178.944 0a178.944 178.944 0 1 0 357.888 0 178.944 178.944 0 1 0-357.888 0Z" fill="#FF6950" p-id="4967"></path><path d="M736 559.4624c-12.0832 0-23.9104 1.2288-35.328 3.4816 81.8688 16.384 143.616 88.6784 143.616 175.4112s-61.696 159.0272-143.616 175.4112c11.4176 2.304 23.2448 3.4816 35.328 3.4816 98.816 0 178.944-80.128 178.944-178.944s-80.128-178.8416-178.944-178.8416z" fill="#F4403B" p-id="4968"></path><path d="M736 932.6592c-107.1104 0-194.304-87.1424-194.304-194.304s87.1424-194.304 194.304-194.304c107.1104 0 194.304 87.1424 194.304 194.304s-87.1936 194.304-194.304 194.304z m0-357.8368c-90.2144 0-163.584 73.3696-163.584 163.584s73.3696 163.584 163.584 163.584c90.1632 0 163.584-73.3696 163.584-163.584s-73.4208-163.584-163.584-163.584z" fill="#333333" p-id="4969"></path><path d="M621.056 713.9328c-1.6896 0-3.3792-0.256-5.0176-0.8704a15.3088 15.3088 0 0 1-9.472-19.5584 137.5232 137.5232 0 0 1 39.4752-58.4704 15.3344 15.3344 0 0 1 21.6576 1.4848c5.5808 6.4 4.9152 16.0768-1.4848 21.6576a106.37312 106.37312 0 0 0-30.6688 45.312 15.22176 15.22176 0 0 1-14.4896 10.4448z" fill="#FFFFFF" p-id="4970"></path><path d="M695.6544 637.952c-6.0928 0-11.8272-3.6352-14.2848-9.6256-3.1744-7.8848 0.6656-16.8448 8.5504-19.968 3.6864-1.4848 7.4752-2.816 11.2128-3.9424 8.0896-2.4576 16.6912 2.1504 19.1488 10.24s-2.1504 16.6912-10.24 19.1488c-2.9184 0.8704-5.8368 1.8944-8.704 3.072-1.792 0.7168-3.7376 1.0752-5.6832 1.0752z" fill="#FFFFFF" p-id="4971"></path><path d="M810.1888 722.9952h-58.8288v-58.8288c0-8.4992-6.8608-15.36-15.36-15.36s-15.36 6.8608-15.36 15.36v58.8288h-58.8288c-8.4992 0-15.36 6.8608-15.36 15.36s6.8608 15.36 15.36 15.36h58.8288v58.8288c0 8.4992 6.8608 15.36 15.36 15.36s15.36-6.8608 15.36-15.36v-58.8288h58.8288c8.4992 0 15.36-6.8608 15.36-15.36s-6.912-15.36-15.36-15.36z" fill="#333333" p-id="4972"></path></svg>