<?xml version="1.0" standalone="no"?><!DOCTYPE svg PUBLIC "-//W3C//DTD SVG 1.1//EN" "http://www.w3.org/Graphics/SVG/1.1/DTD/svg11.dtd"><svg t="1671710569827" class="icon" viewBox="0 0 1024 1024" version="1.1" xmlns="http://www.w3.org/2000/svg" p-id="4042" xmlns:xlink="http://www.w3.org/1999/xlink" width="200" height="200"><path d="M803.328 846.1824H222.9248c-63.0272 0-114.176-51.0976-114.176-114.176V307.3536c0-63.0272 51.0976-114.176 114.176-114.176H803.328c63.0272 0 114.176 51.0976 114.176 114.176v424.6528c-0.0512 63.0272-51.1488 114.176-114.176 114.176z" fill="#7BD3FF" p-id="4043"></path><path d="M821.7088 193.1776h-89.6512c52.8896 0 95.744 52.6848 95.744 117.7088v417.5872c0 65.024-42.8544 117.7088-95.744 117.7088h89.6512c52.8896 0 95.744-52.6848 95.744-117.7088V310.8864c0-64.9728-42.8544-117.7088-95.744-117.7088z" fill="#5BC7FC" p-id="4044"></path><path d="M803.328 861.5424H222.9248c-71.424 0-129.536-58.112-129.536-129.536V307.3536c0-71.424 58.112-129.536 129.536-129.536H803.328c71.424 0 129.536 58.112 129.536 129.536v424.6528c0 71.424-58.112 129.536-129.536 129.536zM222.9248 208.5376c-54.4768 0-98.816 44.3392-98.816 98.816v424.6528c0 54.4768 44.3392 98.816 98.816 98.816H803.328c54.4768 0 98.816-44.3392 98.816-98.816V307.3536c0-54.4768-44.3392-98.816-98.816-98.816H222.9248z" fill="#333333" p-id="4045"></path><path d="M792.5248 472.576H473.2416c-8.4992 0-15.36-6.8608-15.36-15.36s6.8608-15.36 15.36-15.36h319.2832c8.4992 0 15.36 6.8608 15.36 15.36s-6.8608 15.36-15.36 15.36zM687.3088 288.8704h-39.5264c-8.4992 0-15.36-6.8608-15.36-15.36s6.8608-15.36 15.36-15.36h39.5264c8.4992 0 15.36 6.8608 15.36 15.36s-6.912 15.36-15.36 15.36zM792.5248 288.8704h-38.2464c-8.4992 0-15.36-6.8608-15.36-15.36s6.8608-15.36 15.36-15.36h38.2464c8.4992 0 15.36 6.8608 15.36 15.36s-6.8608 15.36-15.36 15.36zM792.5248 656.3328H473.2416c-8.4992 0-15.36-6.8608-15.36-15.36s6.8608-15.36 15.36-15.36h319.2832c8.4992 0 15.36 6.8608 15.36 15.36s-6.8608 15.36-15.36 15.36z" fill="#333333" p-id="4046"></path><path d="M405.7088 293.4784H383.488c-8.4992 0-15.36-6.8608-15.36-15.36s6.8608-15.36 15.36-15.36h22.2208c8.4992 0 15.36 6.8608 15.36 15.36s-6.912 15.36-15.36 15.36zM325.2736 293.4784H211.5584c-8.4992 0-15.36-6.8608-15.36-15.36s6.8608-15.36 15.36-15.36h113.7152c8.4992 0 15.36 6.8608 15.36 15.36s-6.8608 15.36-15.36 15.36z" fill="#FFFFFF" p-id="4047"></path><path d="M369.3056 574.2592H307.6608v-34.9696h61.6448c8.4992 0 15.36-6.8608 15.36-15.36s-6.8608-15.36-15.36-15.36h-44.2368l55.3472-69.632a15.36 15.36 0 0 0-2.4576-21.5552c-6.656-5.2736-16.3328-4.1984-21.5552 2.4576L293.0688 499.456 228.1472 419.6864c-5.376-6.5536-15.0528-7.5776-21.6064-2.2016a15.31904 15.31904 0 0 0-2.2016 21.6064l56.576 69.5296h-45.6192c-8.4992 0-15.36 6.8608-15.36 15.36s6.8608 15.36 15.36 15.36h61.6448v34.9696H215.3472c-8.4992 0-15.36 6.8608-15.36 15.36s6.8608 15.36 15.36 15.36H276.992v47.1552c0 8.4992 6.8608 15.36 15.36 15.36s15.36-6.8608 15.36-15.36v-47.1552h61.6448c8.4992 0 15.36-6.8608 15.36-15.36s-6.912-15.4112-15.4112-15.4112z" fill="#333333" p-id="4048"></path></svg>