<?xml version="1.0" standalone="no"?><!DOCTYPE svg PUBLIC "-//W3C//DTD SVG 1.1//EN" "http://www.w3.org/Graphics/SVG/1.1/DTD/svg11.dtd"><svg t="1671710577605" class="icon" viewBox="0 0 1024 1024" version="1.1" xmlns="http://www.w3.org/2000/svg" p-id="4649" xmlns:xlink="http://www.w3.org/1999/xlink" width="200" height="200"><path d="M877.5168 474.624c0-123.1872-60.416-232.2944-153.2928-299.2128-60.5696-43.6736-134.9632-69.4272-215.296-69.4272-203.6224 0-368.64 165.0688-368.64 368.64s165.0176 368.5888 368.5888 368.5888 368.64-165.0176 368.64-368.5888z" fill="#7BD3FF" p-id="4650"></path><path d="M724.224 175.4112C663.6544 131.7376 589.2608 105.984 508.928 105.984c-13.1584 0-26.112 0.7168-38.912 2.048 65.5872 6.8096 126.0544 30.72 176.7936 67.328 92.8256 66.9184 153.2928 176.0256 153.2928 299.2128 0 190.5152-144.5376 347.2384-329.8816 366.592 12.7488 1.3312 25.6512 2.048 38.7072 2.048 203.5712 0 368.5888-165.0176 368.5888-368.5888 0-123.1872-60.4672-232.2944-153.2928-299.2128z" fill="#59B3EA" p-id="4651"></path><path d="M741.2224 474.624c0-77.6704-38.0928-146.3808-96.6144-188.5696-38.1952-27.5456-85.0432-43.7248-135.7312-43.7248-128.3072 0-232.2944 103.9872-232.2944 232.2944s103.9872 232.2944 232.2944 232.2944 232.3456-103.9872 232.3456-232.2944z" fill="#F5D126" p-id="4652"></path><path d="M646.1952 289.1776c-37.5296-27.0848-83.6096-43.008-133.4272-43.008-8.1408 0-16.1792 0.4608-24.1152 1.28 40.6528 4.1984 78.1312 19.0464 109.568 41.728 57.5488 41.472 87.4496 109.1072 87.4496 185.4464 0 118.0672-82.0224 215.1936-196.9152 227.1744 7.8848 0.8192 15.872 1.28 24.0128 1.28 126.1568 0 228.4544-102.2976 228.4544-228.4544-0.0512-76.3392-37.4784-143.9744-95.0272-185.4464z" fill="#F2B200" p-id="4653"></path><path d="M604.7232 474.624c0-32.0512-15.7184-60.3648-39.8336-77.7728a95.29856 95.29856 0 0 0-55.9616-18.0224c-52.9408 0-95.8464 42.9056-95.8464 95.8464s42.9056 95.8464 95.8464 95.8464 95.7952-43.008 95.7952-95.8976z" fill="#FF6464" p-id="4654"></path><path d="M564.8896 396.8a95.29856 95.29856 0 0 0-55.9616-18.0224c-8.6016 0-16.9472 1.2288-24.8832 3.3792 11.264 3.0208 21.7088 8.0384 30.9248 14.6432 24.1152 17.408 39.8336 45.7728 39.8336 77.7728 0 44.288-30.0544 81.408-70.8608 92.416 7.9872 2.1504 16.3328 3.3792 24.9856 3.3792 52.9408 0 95.8464-42.9056 95.8464-95.8464-0.0512-31.9488-15.7696-60.3136-39.8848-77.7216z" fill="#FF3B3B" p-id="4655"></path><path d="M334.6432 489.984c-8.4992 0-15.36-6.8608-15.36-15.36 0-104.5504 85.0432-189.5936 189.5936-189.5936 8.4992 0 15.36 6.8608 15.36 15.36s-6.8608 15.36-15.36 15.36c-87.6032 0-158.8736 71.2704-158.8736 158.8736 0 8.448-6.8608 15.36-15.36 15.36z" fill="#FFFFFF" p-id="4656"></path><path d="M719.1552 179.968l78.1824-75.52 13.2096 69.3248 71.6288 19.3536-80.5376 70.8608-75.52-3.4816z" fill="#FF5A5A" p-id="4657"></path><path d="M764.928 133.12l17.408 68.5056 37.7856 10.1888-23.808 40.96 80.4352-58.368-62.1568-20.6336-15.4112-53.7088z" fill="#FF3B3B" p-id="4658"></path><path d="M494.0288 488.8064c3.0208 3.072 7.0144 4.6592 11.008 4.6592 3.84 0 7.7312-1.4336 10.7008-4.352l212.3264-206.6944h1.0752l76.6464-3.4816c3.6352-0.1536 7.0656-1.5872 9.728-4.0448l82.0736-75.8784c4.3008-3.9936 5.9904-10.0864 4.2496-15.7184a15.27808 15.27808 0 0 0-12.288-10.7008l-64.6144-10.3424-13.7216-66.6624a15.2576 15.2576 0 0 0-10.752-11.6224 15.29856 15.29856 0 0 0-15.3088 4.0448l-64.4608 66.4064C657.8176 112.64 584.8576 90.624 508.928 90.624c-211.7632 0-384 172.288-384 384 0 130.048 65.0752 245.1456 164.3008 314.624L193.536 924.9792c-4.864 6.912-3.2256 16.5376 3.6864 21.4016a15.40096 15.40096 0 0 0 21.4528-3.6864l96.4096-136.8064a381.4912 381.4912 0 0 0 193.792 52.6848c73.2672 0 141.7728-20.6336 200.0896-56.3712l92.3648 134.8608c2.9696 4.352 7.7824 6.656 12.6976 6.656a15.32928 15.32928 0 0 0 12.6464-24.0128l-92.2112-134.656c95.8976-69.888 158.4128-182.9888 158.4128-310.4256 0-57.856-12.544-113.4592-37.3248-165.2736a15.3088 15.3088 0 0 0-20.48-7.2192c-7.68 3.6352-10.9056 12.8-7.2192 20.48 22.784 47.6672 34.304 98.816 34.304 152.064 0 194.7648-158.464 353.2288-353.2288 353.2288-194.7648 0-353.2288-158.464-353.2288-353.2288 0-194.7648 158.464-353.2288 353.2288-353.2288 69.7856 0 136.7552 20.1728 194.56 58.368l3.8912 79.9744-31.0784 30.2592c-45.9264-41.6768-105.1136-64.6144-167.3216-64.6144-137.4208 0-249.2416 111.8208-249.2416 249.2416s111.8208 249.2416 249.2416 249.2416 249.2416-111.8208 249.2416-249.2416c0-43.008-11.1104-85.4016-32.2048-122.5728a15.36 15.36 0 1 0-26.7264 15.1552 218.7264 218.7264 0 0 1 28.2112 107.4688c0 120.4736-97.9968 218.5216-218.5216 218.5216-120.4736 0-218.5216-97.9968-218.5216-218.5216s97.9456-218.624 218.4704-218.624c53.9136 0 105.216 19.6096 145.3056 55.3472L576 387.584a109.22496 109.22496 0 0 0-67.0208-22.8352c-60.5696 0-109.824 49.2544-109.824 109.824s49.2544 109.824 109.824 109.824 109.824-49.2544 109.824-109.824c0-6.7584-0.6144-13.568-1.8432-20.224a15.32416 15.32416 0 0 0-17.92-12.288 15.36 15.36 0 0 0-12.288 17.92c0.8704 4.8128 1.3312 9.728 1.3312 14.6432 0 43.6224-35.4816 79.104-79.104 79.104s-79.104-35.4816-79.104-79.104 35.4816-79.104 79.104-79.104c16.128 0 31.5904 4.9152 44.6976 13.9264L494.336 467.0976a15.3088 15.3088 0 0 0-0.3072 21.7088z m292.9664-358.656l10.0352 48.64a15.38048 15.38048 0 0 0 12.5952 12.0832l43.8784 7.0144-54.7328 50.6368-61.1328 2.7648-3.2256-66.9696 52.5824-54.1696z" fill="#333333" p-id="4659"></path><path d="M198.144 500.0192a15.36 15.36 0 0 1-15.36-15.1552c-1.5872-116.5312 59.1872-226.8672 158.6176-287.9488a15.37536 15.37536 0 0 1 16.0768 26.2144C267.2128 278.528 212.0704 378.6752 213.5552 484.4544c0.1024 8.4992-6.656 15.4624-15.1552 15.5648h-0.256zM397.7216 201.1648c-6.0928 0-11.8272-3.6352-14.2336-9.6256-3.1744-7.8848 0.6144-16.8448 8.4992-20.0192l2.304-0.9216c4.864-1.8944 9.8816-3.6864 14.8992-5.4272a15.36512 15.36512 0 0 1 9.7792 29.1328c-4.5568 1.536-9.1136 3.1744-13.4656 4.864l-2.048 0.8192c-1.8432 0.8192-3.7888 1.1776-5.7344 1.1776z" fill="#FFFFFF" p-id="4660"></path></svg>