<?xml version="1.0" standalone="no"?><!DOCTYPE svg PUBLIC "-//W3C//DTD SVG 1.1//EN" "http://www.w3.org/Graphics/SVG/1.1/DTD/svg11.dtd"><svg t="1671710593273" class="icon" viewBox="0 0 1024 1024" version="1.1" xmlns="http://www.w3.org/2000/svg" p-id="5719" xmlns:xlink="http://www.w3.org/1999/xlink" width="200" height="200"><path d="M832.9728 137.728c-9.3184 38.0928-43.5712 66.4064-84.5312 66.4064-40.96 0-75.264-28.3136-84.5312-66.4064h-67.7888c-9.3184 38.0928-43.5712 66.4064-84.5312 66.4064-40.96 0-75.264-28.3136-84.5312-66.4064H358.912c-9.3184 38.0928-43.5712 66.4064-84.5312 66.4064-40.96 0-75.264-28.3136-84.5312-66.4064h-26.2144a40.6528 40.6528 0 0 0-40.6528 40.6528v597.4528c0 63.7952 51.712 115.5584 115.5584 115.5584h546.048c63.7952 0 115.5584-51.712 115.5584-115.5584V178.3808a40.6528 40.6528 0 0 0-40.6528-40.6528h-26.5216z" fill="#F5D126" p-id="5720"></path><path d="M862.8224 137.728h-24.2176c-5.1712 23.1424-18.8416 42.6496-37.12 54.3744v569.5488c0 71.6288-47.36 129.7408-105.8304 129.7408h98.6112c58.4704 0 105.8304-51.712 105.8304-115.5584V178.3808c-0.0512-22.4768-16.6912-40.6528-37.2736-40.6528z" fill="#F2B200" p-id="5721"></path><path d="M784.5376 906.752H238.4896c-72.192 0-130.9184-58.7264-130.9184-130.9184V178.3808c0-30.8736 25.1392-56.0128 56.0128-56.0128h26.2144c7.0656 0 13.2608 4.864 14.8992 11.7248a71.5264 71.5264 0 0 0 69.632 54.6816c33.1264 0 61.7472-22.4768 69.632-54.6816a15.38048 15.38048 0 0 1 14.8992-11.7248h68.0448c7.0656 0 13.2608 4.864 14.8992 11.7248a71.5264 71.5264 0 0 0 69.632 54.6816c33.1264 0 61.7472-22.4768 69.632-54.6816a15.38048 15.38048 0 0 1 14.8992-11.7248h67.7888c7.0656 0 13.2608 4.8128 14.8992 11.7248a71.5264 71.5264 0 0 0 69.632 54.6816c33.1264 0 61.7472-22.4768 69.632-54.6816a15.38048 15.38048 0 0 1 14.8992-11.7248h26.4192c30.8736 0 56.0128 25.1392 56.0128 56.0128v597.4528c0.1536 72.192-58.5216 130.9184-130.7136 130.9184zM163.584 153.088a25.344 25.344 0 0 0-25.2928 25.2928v597.4528c0 55.2448 44.9536 100.1984 100.1984 100.1984h546.048c55.2448 0 100.1984-44.9536 100.1984-100.1984V178.3808a25.344 25.344 0 0 0-25.2928-25.2928h-15.104c-14.848 39.6288-52.6848 66.4064-95.8464 66.4064s-81.0496-26.7776-95.8976-66.4064h-45.1584a102.1952 102.1952 0 0 1-95.8464 66.4064A102.0928 102.0928 0 0 1 415.744 153.088h-45.4144a102.1952 102.1952 0 0 1-95.8464 66.4064A102.0928 102.0928 0 0 1 178.6368 153.088h-15.0528z" fill="#333333" p-id="5722"></path><path d="M781.0048 480.9216h-198.8096c-8.4992 0-15.36-6.8608-15.36-15.36s6.8608-15.36 15.36-15.36h198.8096c8.4992 0 15.36 6.8608 15.36 15.36s-6.912 15.36-15.36 15.36zM781.0048 641.5872h-198.8096c-8.4992 0-15.36-6.8608-15.36-15.36s6.8608-15.36 15.36-15.36h198.8096c8.4992 0 15.36 6.8608 15.36 15.36s-6.912 15.36-15.36 15.36zM460.4928 610.8672H376.4736v-70.5536h84.0192c8.4992 0 15.36-6.8608 15.36-15.36s-6.8608-15.36-15.36-15.36H382.8224l81.4592-91.9552c5.632-6.3488 5.0176-16.0768-1.3312-21.6576a15.32416 15.32416 0 0 0-21.6576 1.3312L362.24 486.4512l-81.408-89.344a15.42144 15.42144 0 0 0-21.7088-1.024 15.42144 15.42144 0 0 0-1.024 21.7088l83.6096 91.7504H261.7344c-8.4992 0-15.36 6.8608-15.36 15.36s6.8608 15.36 15.36 15.36h84.0192v70.5536H261.7344c-8.4992 0-15.36 6.8608-15.36 15.36s6.8608 15.36 15.36 15.36h84.0192v75.008c0 8.4992 6.8608 15.36 15.36 15.36s15.36-6.8608 15.36-15.36V641.536h84.0192c8.4992 0 15.36-6.8608 15.36-15.36s-6.8608-15.3088-15.36-15.3088z" fill="#333333" p-id="5723"></path><path d="M505.344 308.0704h-24.9856c-8.4992 0-15.36-6.8608-15.36-15.36s6.8608-15.36 15.36-15.36h24.9856c8.4992 0 15.36 6.8608 15.36 15.36s-6.912 15.36-15.36 15.36zM412.8256 308.0704h-174.08c-8.4992 0-15.36-6.8608-15.36-15.36s6.8608-15.36 15.36-15.36h174.08c8.4992 0 15.36 6.8608 15.36 15.36s-6.8608 15.36-15.36 15.36z" fill="#FFFFFF" p-id="5724"></path></svg>