<?xml version="1.0" standalone="no"?><!DOCTYPE svg PUBLIC "-//W3C//DTD SVG 1.1//EN" "http://www.w3.org/Graphics/SVG/1.1/DTD/svg11.dtd"><svg t="1671710554256" class="icon" viewBox="0 0 1024 1024" version="1.1" xmlns="http://www.w3.org/2000/svg" p-id="3123" xmlns:xlink="http://www.w3.org/1999/xlink" width="200" height="200"><path d="M923.7504 324.864v-26.7264c0-64.256-50.3296-116.3264-112.4352-116.3264H223.0784c-62.1056 0-112.4352 52.0704-112.4352 116.3264v26.7264h813.1072zM110.6432 396.6976v330.24c0 64.256 50.3296 116.3264 112.4352 116.3264h588.2368c62.1056 0 112.4352-52.0704 112.4352-116.3264v-330.24H110.6432z" fill="#FFBE4A" p-id="3124"></path><path d="M830.5152 396.6976v330.24c0 64.256-50.3296 116.3264-112.4352 116.3264h93.2352c62.1056 0 112.4352-52.0704 112.4352-116.3264v-330.24h-93.2352zM781.2608 187.904s50.0224 21.2992 50.0224 136.96h88.2176s32.3584-152.1664-138.24-136.96z" fill="#F2842B" p-id="3125"></path><path d="M923.7504 340.224H110.6432c-8.4992 0-15.36-6.8608-15.36-15.36v-26.7264c0-72.6016 57.344-131.6864 127.7952-131.6864h588.2368c70.4512 0 127.7952 59.0848 127.7952 131.6864v26.7264c0 8.4992-6.8608 15.36-15.36 15.36z m-797.7472-30.72h782.3872v-11.3664c0-55.6544-43.52-100.9664-97.0752-100.9664H223.0784c-53.504 0-97.0752 45.312-97.0752 100.9664v11.3664zM811.3152 858.624H223.0784c-70.4512 0-127.7952-59.0848-127.7952-131.6864v-330.24c0-8.4992 6.8608-15.36 15.36-15.36h813.1072c8.4992 0 15.36 6.8608 15.36 15.36v330.24c0 72.6016-57.344 131.6864-127.7952 131.6864zM126.0032 412.0576v314.88c0 55.6544 43.52 100.9664 97.0752 100.9664h588.2368c53.504 0 97.0752-45.312 97.0752-100.9664v-314.88H126.0032z" fill="#333333" p-id="3126"></path><path d="M517.2224 550.2464H216.5248c-8.4992 0-15.36-6.8608-15.36-15.36s6.8608-15.36 15.36-15.36h300.6464c8.4992 0 15.36 6.8608 15.36 15.36s-6.8608 15.36-15.3088 15.36zM380.2624 676.0448H216.5248c-8.4992 0-15.36-6.8608-15.36-15.36s6.8608-15.36 15.36-15.36h163.7376c8.4992 0 15.36 6.8608 15.36 15.36s-6.8608 15.36-15.36 15.36z" fill="#FFFFFF" p-id="3127"></path><path d="M790.6304 766.8736h-147.9168l30.72-92.0064h147.9168z" fill="#FF69A3" p-id="3128"></path><path d="M765.0816 682.496l-23.04 77.1072h46.08l25.4976-75.1104z" fill="#FF4D91" p-id="3129"></path><path d="M790.6304 782.2336h-147.9168c-4.9152 0-9.5744-2.3552-12.4416-6.4-2.8672-3.9936-3.6864-9.1648-2.0992-13.824l30.72-92.0064a15.38048 15.38048 0 0 1 14.592-10.496h147.9168c4.9152 0 9.5744 2.3552 12.4416 6.4 2.8672 3.9936 3.6864 9.1648 2.0992 13.824l-30.72 92.0064a15.42656 15.42656 0 0 1-14.592 10.496z m-126.6176-30.72h115.5584l20.48-61.2864h-115.5584l-20.48 61.2864z" fill="#333333" p-id="3130"></path></svg>